<svg xmlns="http://www.w3.org/2000/svg" version="1.1" xmlns:xlink="http://www.w3.org/1999/xlink" xmlns:svgjs="http://svgjs.dev/svgjs" width="1500" height="556" viewBox="0 0 1500 556"><g transform="matrix(1,0,0,1,-0.9075508800895022,0.05000642357202878)"><svg viewBox="0 0 396 147" data-background-color="#191970" preserveAspectRatio="xMidYMid meet" height="556" width="1500" xmlns="http://www.w3.org/2000/svg" xmlns:xlink="http://www.w3.org/1999/xlink"><g id="tight-bounds" transform="matrix(1,0,0,1,0.2404065676563505,-0.013221122778929839)"><svg viewBox="0 0 395.52 147.02644224555786" height="147.02644224555786" width="395.52"><g><svg viewBox="0 0 501.8868862897279 186.5661491223694" height="147.02644224555786" width="395.52"><g><rect width="6.09554559882155" height="186.5661491223694" x="84.31441503954105" y="0" fill="#00bfff" opacity="1" stroke-width="0" stroke="transparent" fill-opacity="1" class="rect-qz-0" data-fill-palette-color="primary" rx="1%" id="qz-0" data-palette-color="#00bfff"></rect></g><g transform="matrix(1,0,0,1,106.3668862897279,0.46409489831434314)"><svg viewBox="0 0 395.52 185.63795932574072" height="185.63795932574072" width="395.52"><g id="textblocktransform"><svg viewBox="0 0 395.52 185.63795932574072" height="185.63795932574072" width="395.52" id="textblock"><g><svg viewBox="0 0 395.52 146.13077490774907" height="146.13077490774907" width="395.52"><g transform="matrix(1,0,0,1,0,0)"><svg width="395.52" viewBox="3.15 -36.45 216.90000000000003 77.1" height="146.13077490774907" data-palette-color="#00bfff"><svg></svg><svg></svg><g class="wordmark-text-0" data-fill-palette-color="primary" id="text-0"><path d="M27.15 0.6v0c-1.933 0-3.65-0.45-5.15-1.35-1.5-0.9-2.667-2.117-3.5-3.65-0.833-1.533-1.25-3.233-1.25-5.1v0-16.75c0-0.767-0.183-1.46-0.55-2.08-0.367-0.613-0.857-1.103-1.47-1.47-0.62-0.367-1.297-0.55-2.03-0.55v0c-0.733 0-1.4 0.183-2 0.55-0.6 0.367-1.083 0.857-1.45 1.47-0.367 0.62-0.55 1.313-0.55 2.08v0 26.25h-5.95v-25.5c0-1.9 0.417-3.61 1.25-5.13 0.833-1.513 2-2.72 3.5-3.62 1.5-0.9 3.233-1.35 5.2-1.35v0c2 0 3.75 0.45 5.25 1.35 1.5 0.9 2.667 2.107 3.5 3.62 0.833 1.52 1.25 3.23 1.25 5.13v0 16.75c0 0.767 0.183 1.457 0.55 2.07 0.367 0.62 0.85 1.113 1.45 1.48 0.6 0.367 1.25 0.55 1.95 0.55v0c0.733 0 1.4-0.183 2-0.55 0.6-0.367 1.077-0.86 1.43-1.48 0.347-0.613 0.52-1.303 0.52-2.07v0-26.25h6v25.5c0 1.867-0.417 3.567-1.25 5.1-0.833 1.533-1.99 2.75-3.47 3.65-1.487 0.9-3.23 1.35-5.23 1.35zM63.55 0h-6.85c-2.867 0-5.373-0.543-7.52-1.63-2.153-1.08-3.83-2.58-5.03-4.5-1.2-1.913-1.8-4.12-1.8-6.62v0c0-2.633 0.533-4.95 1.6-6.95 1.067-2 2.533-3.567 4.4-4.7 1.867-1.133 4.017-1.7 6.45-1.7v0c2.733 0 4.983 0.583 6.75 1.75 1.767 1.167 3.073 2.733 3.92 4.7 0.853 1.967 1.28 4.167 1.28 6.6v0c0 0.333-0.017 0.717-0.05 1.15-0.033 0.433-0.083 0.767-0.15 1v0h-18.1c0.2 1.333 0.683 2.44 1.45 3.32 0.767 0.887 1.733 1.553 2.9 2 1.167 0.453 2.467 0.68 3.9 0.68v0h6.85zM48.4-14.8v0h12.6c-0.033-0.633-0.123-1.267-0.27-1.9-0.153-0.633-0.387-1.233-0.7-1.8-0.32-0.567-0.72-1.06-1.2-1.48-0.487-0.413-1.063-0.747-1.73-1-0.667-0.247-1.433-0.37-2.3-0.37v0c-1 0-1.883 0.19-2.65 0.57-0.767 0.387-1.417 0.887-1.95 1.5-0.533 0.62-0.94 1.32-1.22 2.1-0.287 0.787-0.48 1.58-0.58 2.38zM84.25 0.6v0c-2.633 0-4.967-0.593-7-1.78-2.033-1.18-3.64-2.78-4.82-4.8-1.187-2.013-1.78-4.27-1.78-6.77v0c0-2.5 0.593-4.76 1.78-6.78 1.18-2.013 2.787-3.613 4.82-4.8 2.033-1.18 4.367-1.77 7-1.77v0c2.6 0 4.917 0.59 6.95 1.77 2.033 1.187 3.643 2.787 4.83 4.8 1.18 2.02 1.77 4.28 1.77 6.78v0c0 2.5-0.59 4.757-1.77 6.77-1.187 2.02-2.797 3.62-4.83 4.8-2.033 1.187-4.35 1.78-6.95 1.78zM84.25-4.3v0c1.567 0 2.933-0.377 4.1-1.13 1.167-0.747 2.067-1.76 2.7-3.04 0.633-1.287 0.95-2.713 0.95-4.28v0c0-1.567-0.317-2.993-0.95-4.28-0.633-1.28-1.533-2.297-2.7-3.05-1.167-0.747-2.533-1.12-4.1-1.12v0c-1.6 0-2.973 0.373-4.12 1.12-1.153 0.753-2.053 1.77-2.7 3.05-0.653 1.287-0.98 2.713-0.98 4.28v0c0 1.567 0.327 2.993 0.98 4.28 0.647 1.28 1.547 2.293 2.7 3.04 1.147 0.753 2.52 1.13 4.12 1.13zM109 0h-5.75v-14.7c0-2.2 0.5-4.16 1.5-5.88 1-1.713 2.417-3.063 4.25-4.05 1.833-0.98 3.983-1.47 6.45-1.47v0c2.467 0 4.61 0.49 6.43 1.47 1.813 0.987 3.22 2.337 4.22 4.05 1 1.72 1.5 3.68 1.5 5.88v0 14.7h-5.7v-14.65c0-1.3-0.3-2.44-0.9-3.42-0.6-0.987-1.39-1.757-2.37-2.31-0.987-0.547-2.063-0.82-3.23-0.82v0c-1.133 0-2.19 0.273-3.17 0.82-0.987 0.553-1.77 1.323-2.35 2.31-0.587 0.98-0.88 2.12-0.88 3.42v0zM140.25 0h-5.75v-25.5h5.75zM137.35-29.05v0c-1 0-1.867-0.367-2.6-1.1-0.733-0.733-1.1-1.6-1.1-2.6v0c0-1 0.367-1.867 1.1-2.6 0.733-0.733 1.6-1.1 2.6-1.1v0c1.033 0 1.91 0.367 2.63 1.1 0.713 0.733 1.07 1.6 1.07 2.6v0c0 1-0.357 1.867-1.07 2.6-0.72 0.733-1.597 1.1-2.63 1.1zM159.35 0.6v0c-2.467 0-4.617-0.493-6.45-1.48-1.833-0.98-3.25-2.337-4.25-4.07-1-1.733-1.5-3.683-1.5-5.85v0-14.7h5.75v14.65c0 1.3 0.293 2.44 0.88 3.42 0.58 0.987 1.363 1.753 2.35 2.3 0.98 0.553 2.053 0.83 3.22 0.83v0c1.167 0 2.243-0.277 3.23-0.83 0.98-0.547 1.763-1.313 2.35-2.3 0.58-0.98 0.87-2.12 0.87-3.42v0-14.65h5.75v14.7c0 2.167-0.507 4.117-1.52 5.85-1.02 1.733-2.437 3.09-4.25 4.07-1.82 0.987-3.963 1.48-6.43 1.48zM184.15 0h-5.7v-15.25c0-1.967 0.467-3.777 1.4-5.43 0.933-1.647 2.283-2.963 4.05-3.95 1.767-0.98 3.883-1.47 6.35-1.47v0c1.2 0 2.35 0.15 3.45 0.45 1.1 0.3 2.127 0.773 3.08 1.42 0.947 0.653 1.753 1.463 2.42 2.43v0h0.05c0.667-0.967 1.477-1.777 2.43-2.43 0.947-0.647 1.98-1.12 3.1-1.42 1.113-0.3 2.27-0.45 3.47-0.45v0c2.5 0 4.627 0.49 6.38 1.47 1.747 0.987 3.087 2.303 4.02 3.95 0.933 1.653 1.4 3.463 1.4 5.43v0 15.25h-5.7v-15.25c0-1.1-0.273-2.1-0.82-3-0.553-0.9-1.28-1.617-2.18-2.15-0.9-0.533-1.933-0.8-3.1-0.8v0c-1.133 0-2.167 0.267-3.1 0.8-0.933 0.533-1.673 1.25-2.22 2.15-0.553 0.9-0.83 1.9-0.83 3v0 15.25h-5.7v-15.25c0-1.1-0.283-2.1-0.85-3-0.567-0.9-1.307-1.617-2.22-2.15-0.92-0.533-1.947-0.8-3.08-0.8v0c-1.133 0-2.157 0.267-3.07 0.8-0.92 0.533-1.653 1.25-2.2 2.15-0.553 0.9-0.83 1.9-0.83 3v0z" fill="#00bfff" fill-rule="nonzero" stroke="none" stroke-width="1" stroke-linecap="butt" stroke-linejoin="miter" stroke-miterlimit="10" stroke-dasharray="" stroke-dashoffset="0" font-family="none" font-weight="none" font-size="none" text-anchor="none" style="mix-blend-mode: normal" data-fill-palette-color="primary" opacity="1"></path><path transform="translate(0,40.05)" d="M22.3 0h-9.3c-1.967 0-3.69-0.443-5.17-1.33-1.487-0.88-2.637-2.07-3.45-3.57-0.82-1.5-1.23-3.167-1.23-5v0-25.1h6v25.85c0 1.067 0.36 1.983 1.08 2.75 0.713 0.767 1.637 1.15 2.77 1.15v0h9.3zM39.2 0.6v0c-2.467 0-4.617-0.493-6.45-1.48-1.833-0.98-3.25-2.337-4.25-4.07-1-1.733-1.5-3.683-1.5-5.85v0-14.7h5.75v14.65c0 1.3 0.293 2.44 0.88 3.42 0.58 0.987 1.363 1.753 2.35 2.3 0.98 0.553 2.053 0.83 3.22 0.83v0c1.167 0 2.24-0.277 3.22-0.83 0.987-0.547 1.773-1.313 2.36-2.3 0.58-0.98 0.87-2.12 0.87-3.42v0-14.65h5.75v14.7c0 2.167-0.507 4.117-1.52 5.85-1.02 1.733-2.437 3.09-4.25 4.07-1.82 0.987-3.963 1.48-6.43 1.48zM63 0h-6.35l8.2-11.45c-1.433-0.6-2.673-1.41-3.72-2.43-1.053-1.013-1.87-2.187-2.45-3.52-0.587-1.333-0.88-2.767-0.88-4.3v0-3.8h5.75v3.8c0 1.067 0.25 2.04 0.75 2.92 0.5 0.887 1.177 1.623 2.03 2.21 0.847 0.58 1.77 0.97 2.77 1.17v0l7.1-10.1h6.35l-7.85 10.95c1.633 0.533 3.033 1.333 4.2 2.4 1.167 1.067 2.06 2.307 2.68 3.72 0.613 1.42 0.92 2.947 0.92 4.58v0 3.85h-5.7v-3.85c0-1.167-0.283-2.233-0.85-3.2-0.567-0.967-1.34-1.75-2.32-2.35-0.987-0.6-2.097-0.933-3.33-1v0z" fill="#00bfff" fill-rule="nonzero" stroke="none" stroke-width="1" stroke-linecap="butt" stroke-linejoin="miter" stroke-miterlimit="10" stroke-dasharray="" stroke-dashoffset="0" font-family="none" font-weight="none" font-size="none" text-anchor="none" style="mix-blend-mode: normal" data-fill-palette-color="primary" opacity="1"></path></g></svg></g></svg></g><g transform="matrix(1,0,0,1,0,162.08770055911438)"><svg viewBox="0 0 375.74399999999997 23.550258766626357" height="23.550258766626357" width="375.74399999999997"><g transform="matrix(1,0,0,1,0,0)"><svg width="375.74399999999997" viewBox="3.65 -36.5 744.23 46.65" height="23.550258766626357" data-palette-color="#ff1493"><path d="M9.6 0L3.65 0 3.65-35 18.35-35Q21.7-35 24.48-33.48 27.25-31.95 28.9-29.23 30.55-26.5 30.55-22.9L30.55-22.9Q30.55-19.35 28.93-16.6 27.3-13.85 24.53-12.33 21.75-10.8 18.3-10.8L18.3-10.8 9.6-10.8 9.6 0ZM9.6-29.75L9.6-16.05 17.6-16.05Q19.5-16.05 21.1-16.85 22.7-17.65 23.63-19.18 24.55-20.7 24.55-22.9L24.55-22.9Q24.55-25.05 23.63-26.58 22.7-28.1 21.13-28.93 19.55-29.75 17.65-29.75L17.65-29.75 9.6-29.75ZM41.35 0L35.6 0 35.6-36.5 41.35-36.5 41.35 0ZM58.59 0.6L58.59 0.6Q54.95 0.6 52.3-1.2 49.65-3 48.22-6.03 46.8-9.05 46.8-12.7L46.8-12.7Q46.8-16.5 48.42-19.53 50.05-22.55 53.07-24.33 56.09-26.1 60.3-26.1L60.3-26.1Q64.45-26.1 67.37-24.33 70.3-22.55 71.87-19.53 73.45-16.5 73.45-12.8L73.45-12.8 73.45 0 67.7 0 67.7-4.75 67.59-4.75Q66.84-3.35 65.65-2.13 64.45-0.9 62.7-0.15 60.95 0.6 58.59 0.6ZM60.15-4.3L60.15-4.3Q62.4-4.3 64.07-5.43 65.75-6.55 66.7-8.47 67.65-10.4 67.59-12.8L67.59-12.8Q67.59-15.2 66.7-17.07 65.8-18.95 64.15-20.08 62.5-21.2 60.2-21.2L60.2-21.2Q57.8-21.2 56.09-20.08 54.4-18.95 53.5-17.05 52.59-15.15 52.59-12.75L52.59-12.75Q52.59-10.4 53.5-8.47 54.4-6.55 56.07-5.43 57.75-4.3 60.15-4.3ZM95.74 0L92.64 0Q88.69 0 85.59-1.7 82.49-3.4 80.69-6.28 78.89-9.15 78.89-12.75L78.89-12.75Q78.89-16.35 80.69-19.23 82.49-22.1 85.59-23.8 88.69-25.5 92.64-25.5L92.64-25.5 95.74-25.5 95.74-20.6 92.54-20.6Q90.24-20.6 88.47-19.58 86.69-18.55 85.69-16.75 84.69-14.95 84.69-12.75L84.69-12.75Q84.69-10.55 85.69-8.75 86.69-6.95 88.47-5.93 90.24-4.9 92.54-4.9L92.54-4.9 95.74-4.9 95.74 0ZM120.49 0L113.64 0Q109.34 0 106.12-1.63 102.89-3.25 101.09-6.13 99.29-9 99.29-12.75L99.29-12.75Q99.29-16.7 100.89-19.7 102.49-22.7 105.29-24.4 108.09-26.1 111.74-26.1L111.74-26.1Q115.84-26.1 118.49-24.35 121.14-22.6 122.42-19.65 123.69-16.7 123.69-13.05L123.69-13.05Q123.69-12.55 123.64-11.9 123.59-11.25 123.49-10.9L123.49-10.9 105.39-10.9Q105.69-8.9 106.84-7.58 107.99-6.25 109.74-5.58 111.49-4.9 113.64-4.9L113.64-4.9 120.49-4.9 120.49 0ZM105.34-14.8L105.34-14.8 117.94-14.8Q117.89-15.75 117.67-16.7 117.44-17.65 116.97-18.5 116.49-19.35 115.77-19.98 115.04-20.6 114.04-20.98 113.04-21.35 111.74-21.35L111.74-21.35Q110.24-21.35 109.09-20.78 107.94-20.2 107.14-19.28 106.34-18.35 105.92-17.18 105.49-16 105.34-14.8ZM155.64 0.6L155.64 0.6Q151.69 0.6 148.64-1.05 145.59-2.7 143.84-5.78 142.09-8.85 142.09-13.1L142.09-13.1 142.09-35 148.04-35 148.04-12.7Q148.04-10.5 148.96-8.68 149.89-6.85 151.61-5.75 153.34-4.65 155.64-4.65L155.64-4.65Q157.99-4.65 159.71-5.75 161.44-6.85 162.34-8.68 163.24-10.5 163.24-12.7L163.24-12.7 163.24-35 169.24-35 169.24-12.7Q169.24-10.5 170.16-8.68 171.09-6.85 172.79-5.75 174.49-4.65 176.84-4.65L176.84-4.65Q179.19-4.65 180.89-5.75 182.59-6.85 183.51-8.68 184.44-10.5 184.44-12.7L184.44-12.7 184.44-35 190.39-35 190.39-13.1Q190.39-8.85 188.64-5.78 186.89-2.7 183.84-1.05 180.79 0.6 176.84 0.6L176.84 0.6Q174.64 0.6 172.61 0 170.59-0.6 168.99-1.85 167.39-3.1 166.24-4.85L166.24-4.85Q165.14-3.1 163.49-1.88 161.84-0.65 159.86-0.03 157.89 0.6 155.64 0.6ZM202.83 0L197.08 0 197.08-36.5 202.83-36.5 202.83-22.95Q204.38-24.6 206.43-25.35 208.48-26.1 210.58-26.1L210.58-26.1Q214.08-26.1 216.56-24.63 219.03-23.15 220.33-20.58 221.63-18 221.63-14.7L221.63-14.7 221.63 0 215.93 0 215.93-14.65Q215.93-16.6 215.01-18.07 214.08-19.55 212.61-20.38 211.13-21.2 209.33-21.2L209.33-21.2Q207.63-21.2 206.13-20.4 204.63-19.6 203.73-18.15 202.83-16.7 202.83-14.85L202.83-14.85 202.83 0ZM248.28 0L241.43 0Q237.13 0 233.91-1.63 230.68-3.25 228.88-6.13 227.08-9 227.08-12.75L227.08-12.75Q227.08-16.7 228.68-19.7 230.28-22.7 233.08-24.4 235.88-26.1 239.53-26.1L239.53-26.1Q243.63-26.1 246.28-24.35 248.93-22.6 250.21-19.65 251.48-16.7 251.48-13.05L251.48-13.05Q251.48-12.55 251.43-11.9 251.38-11.25 251.28-10.9L251.28-10.9 233.18-10.9Q233.48-8.9 234.63-7.58 235.78-6.25 237.53-5.58 239.28-4.9 241.43-4.9L241.43-4.9 248.28-4.9 248.28 0ZM233.13-14.8L233.13-14.8 245.73-14.8Q245.68-15.75 245.46-16.7 245.23-17.65 244.76-18.5 244.28-19.35 243.56-19.98 242.83-20.6 241.83-20.98 240.83-21.35 239.53-21.35L239.53-21.35Q238.03-21.35 236.88-20.78 235.73-20.2 234.93-19.28 234.13-18.35 233.71-17.18 233.28-16 233.13-14.8ZM262.38 0L256.63 0 256.63-18.25Q256.63-21.65 258.55-23.58 260.48-25.5 263.88-25.5L263.88-25.5 270.03-25.5 270.03-20.6 264.93-20.6Q263.73-20.6 263.05-19.9 262.38-19.2 262.38-18L262.38-18 262.38 0ZM293.78 0L286.93 0Q282.63 0 279.4-1.63 276.18-3.25 274.38-6.13 272.58-9 272.58-12.75L272.58-12.75Q272.58-16.7 274.18-19.7 275.78-22.7 278.58-24.4 281.38-26.1 285.03-26.1L285.03-26.1Q289.13-26.1 291.78-24.35 294.43-22.6 295.7-19.65 296.98-16.7 296.98-13.05L296.98-13.05Q296.98-12.55 296.93-11.9 296.88-11.25 296.78-10.9L296.78-10.9 278.68-10.9Q278.98-8.9 280.13-7.58 281.28-6.25 283.03-5.58 284.78-4.9 286.93-4.9L286.93-4.9 293.78-4.9 293.78 0ZM278.63-14.8L278.63-14.8 291.23-14.8Q291.18-15.75 290.95-16.7 290.73-17.65 290.25-18.5 289.78-19.35 289.05-19.98 288.33-20.6 287.33-20.98 286.33-21.35 285.03-21.35L285.03-21.35Q283.53-21.35 282.38-20.78 281.23-20.2 280.43-19.28 279.63-18.35 279.2-17.18 278.78-16 278.63-14.8ZM334.42 0L325.12 0Q322.17 0 319.95-1.33 317.72-2.65 316.5-4.9 315.27-7.15 315.27-9.9L315.27-9.9 315.27-35 321.27-35 321.27-9.15Q321.27-7.55 322.35-6.4 323.42-5.25 325.12-5.25L325.12-5.25 334.42-5.25 334.42 0ZM344.87 0L339.12 0 339.12-25.5 344.87-25.5 344.87 0ZM341.97-29.05L341.97-29.05Q340.47-29.05 339.37-30.15 338.27-31.25 338.27-32.75L338.27-32.75Q338.27-34.25 339.37-35.35 340.47-36.45 341.97-36.45L341.97-36.45Q343.52-36.45 344.59-35.35 345.67-34.25 345.67-32.75L345.67-32.75Q345.67-31.25 344.59-30.15 343.52-29.05 341.97-29.05ZM369.47 10.15L355.62 10.15 355.62 5.25 368.42 5.25Q369.72 5.25 370.44 4.45 371.17 3.65 371.17 2.45L371.17 2.45 371.17-4.15 371.12-4.15Q370.02-2.8 368.77-1.83 367.52-0.85 365.94-0.33 364.37 0.2 362.47 0.2L362.47 0.2Q358.97 0.2 356.22-1.45 353.47-3.1 351.89-6.08 350.32-9.05 350.32-12.9L350.32-12.9Q350.32-16.65 351.89-19.63 353.47-22.6 356.42-24.35 359.37-26.1 363.62-26.1L363.62-26.1Q367.67-26.1 370.64-24.4 373.62-22.7 375.27-19.63 376.92-16.55 376.92-12.45L376.92-12.45 376.92 2.7Q376.92 6.15 374.92 8.15 372.92 10.15 369.47 10.15L369.47 10.15ZM363.57-4.7L363.57-4.7Q365.87-4.7 367.54-5.78 369.22-6.85 370.14-8.68 371.07-10.5 371.07-12.75L371.07-12.75Q371.07-15.15 370.17-17.05 369.27-18.95 367.59-20.08 365.92-21.2 363.57-21.2L363.57-21.2Q361.27-21.2 359.59-20.08 357.92-18.95 357.02-17.07 356.12-15.2 356.12-12.85L356.12-12.85Q356.12-10.6 357.02-8.75 357.92-6.9 359.59-5.8 361.27-4.7 363.57-4.7ZM389.36 0L383.61 0 383.61-36.5 389.36-36.5 389.36-22.95Q390.91-24.6 392.96-25.35 395.01-26.1 397.11-26.1L397.11-26.1Q400.61-26.1 403.09-24.63 405.56-23.15 406.86-20.58 408.16-18 408.16-14.7L408.16-14.7 408.16 0 402.46 0 402.46-14.65Q402.46-16.6 401.54-18.07 400.61-19.55 399.14-20.38 397.66-21.2 395.86-21.2L395.86-21.2Q394.16-21.2 392.66-20.4 391.16-19.6 390.26-18.15 389.36-16.7 389.36-14.85L389.36-14.85 389.36 0ZM430.21 0L423.86 0Q420.46 0 418.54-1.95 416.61-3.9 416.61-7.25L416.61-7.25 416.61-31.9 422.31-31.9 422.31-7.5Q422.31-6.35 423.01-5.63 423.71-4.9 424.86-4.9L424.86-4.9 430.21-4.9 430.21 0ZM430.26-20.6L412.21-20.6 412.21-25.5 430.26-25.5 430.26-20.6ZM468.91 0L449.11 0 449.11-35 468.41-35Q471.01-35 473.03-33.85 475.06-32.7 476.23-30.7 477.41-28.7 477.41-26.05L477.41-26.05Q477.41-24.3 476.68-22.7 475.96-21.1 474.71-19.93 473.46-18.75 471.81-18.1L471.81-18.1Q473.71-17.55 475.18-16.25 476.66-14.95 477.51-13.15 478.36-11.35 478.36-9.3L478.36-9.3Q478.36-6.6 477.13-4.5 475.91-2.4 473.78-1.2 471.66 0 468.91 0L468.91 0ZM455.06-15.3L455.06-5.3 467.31-5.3Q468.81-5.3 469.96-5.98 471.11-6.65 471.73-7.83 472.36-9 472.36-10.3L472.36-10.3Q472.36-11.65 471.71-12.78 471.06-13.9 469.91-14.6 468.76-15.3 467.21-15.3L467.21-15.3 455.06-15.3ZM455.06-29.75L455.06-20.35 466.56-20.35Q467.96-20.35 469.08-21 470.21-21.65 470.83-22.73 471.46-23.8 471.46-25.05L471.46-25.05Q471.46-26.35 470.86-27.4 470.26-28.45 469.18-29.1 468.11-29.75 466.71-29.75L466.71-29.75 455.06-29.75ZM503.6 0L496.75 0Q492.45 0 489.23-1.63 486-3.25 484.2-6.13 482.4-9 482.4-12.75L482.4-12.75Q482.4-16.7 484-19.7 485.6-22.7 488.4-24.4 491.2-26.1 494.85-26.1L494.85-26.1Q498.95-26.1 501.6-24.35 504.25-22.6 505.53-19.65 506.8-16.7 506.8-13.05L506.8-13.05Q506.8-12.55 506.75-11.9 506.7-11.25 506.6-10.9L506.6-10.9 488.5-10.9Q488.8-8.9 489.95-7.58 491.1-6.25 492.85-5.58 494.6-4.9 496.75-4.9L496.75-4.9 503.6-4.9 503.6 0ZM488.45-14.8L488.45-14.8 501.05-14.8Q501-15.75 500.78-16.7 500.55-17.65 500.08-18.5 499.6-19.35 498.88-19.98 498.15-20.6 497.15-20.98 496.15-21.35 494.85-21.35L494.85-21.35Q493.35-21.35 492.2-20.78 491.05-20.2 490.25-19.28 489.45-18.35 489.03-17.18 488.6-16 488.45-14.8ZM527.55 0L524.45 0Q520.5 0 517.4-1.7 514.3-3.4 512.5-6.28 510.7-9.15 510.7-12.75L510.7-12.75Q510.7-16.35 512.5-19.23 514.3-22.1 517.4-23.8 520.5-25.5 524.45-25.5L524.45-25.5 527.55-25.5 527.55-20.6 524.35-20.6Q522.05-20.6 520.28-19.58 518.5-18.55 517.5-16.75 516.5-14.95 516.5-12.75L516.5-12.75Q516.5-10.55 517.5-8.75 518.5-6.95 520.28-5.93 522.05-4.9 524.35-4.9L524.35-4.9 527.55-4.9 527.55 0ZM544.7 0.6L544.7 0.6Q540.75 0.6 537.7-1.18 534.65-2.95 532.87-5.98 531.1-9 531.1-12.75L531.1-12.75Q531.1-16.5 532.87-19.53 534.65-22.55 537.7-24.33 540.75-26.1 544.7-26.1L544.7-26.1Q548.6-26.1 551.65-24.33 554.7-22.55 556.47-19.53 558.25-16.5 558.25-12.75L558.25-12.75Q558.25-9 556.47-5.98 554.7-2.95 551.65-1.18 548.6 0.6 544.7 0.6ZM544.7-4.3L544.7-4.3Q547.05-4.3 548.8-5.43 550.55-6.55 551.5-8.47 552.45-10.4 552.45-12.75L552.45-12.75Q552.45-15.1 551.5-17.03 550.55-18.95 548.8-20.08 547.05-21.2 544.7-21.2L544.7-21.2Q542.3-21.2 540.57-20.08 538.85-18.95 537.87-17.03 536.9-15.1 536.9-12.75L536.9-12.75Q536.9-10.4 537.87-8.47 538.85-6.55 540.57-5.43 542.3-4.3 544.7-4.3ZM569.39 0L563.7 0 563.7-15.25Q563.7-18.2 565.1-20.68 566.5-23.15 569.14-24.63 571.79-26.1 575.5-26.1L575.5-26.1Q577.29-26.1 578.95-25.65 580.6-25.2 582.02-24.23 583.45-23.25 584.45-21.8L584.45-21.8 584.5-21.8Q585.5-23.25 586.92-24.23 588.35-25.2 590.02-25.65 591.7-26.1 593.5-26.1L593.5-26.1Q597.25-26.1 599.87-24.63 602.5-23.15 603.89-20.68 605.29-18.2 605.29-15.25L605.29-15.25 605.29 0 599.6 0 599.6-15.25Q599.6-16.9 598.77-18.25 597.95-19.6 596.6-20.4 595.25-21.2 593.5-21.2L593.5-21.2Q591.79-21.2 590.39-20.4 589-19.6 588.17-18.25 587.35-16.9 587.35-15.25L587.35-15.25 587.35 0 581.64 0 581.64-15.25Q581.64-16.9 580.79-18.25 579.95-19.6 578.57-20.4 577.2-21.2 575.5-21.2L575.5-21.2Q573.79-21.2 572.42-20.4 571.04-19.6 570.22-18.25 569.39-16.9 569.39-15.25L569.39-15.25 569.39 0ZM631.94 0L625.09 0Q620.79 0 617.57-1.63 614.34-3.25 612.54-6.13 610.74-9 610.74-12.75L610.74-12.75Q610.74-16.7 612.34-19.7 613.94-22.7 616.74-24.4 619.54-26.1 623.19-26.1L623.19-26.1Q627.29-26.1 629.94-24.35 632.59-22.6 633.87-19.65 635.14-16.7 635.14-13.05L635.14-13.05Q635.14-12.55 635.09-11.9 635.04-11.25 634.94-10.9L634.94-10.9 616.84-10.9Q617.14-8.9 618.29-7.58 619.44-6.25 621.19-5.58 622.94-4.9 625.09-4.9L625.09-4.9 631.94-4.9 631.94 0ZM616.79-14.8L616.79-14.8 629.39-14.8Q629.34-15.75 629.12-16.7 628.89-17.65 628.42-18.5 627.94-19.35 627.22-19.98 626.49-20.6 625.49-20.98 624.49-21.35 623.19-21.35L623.19-21.35Q621.69-21.35 620.54-20.78 619.39-20.2 618.59-19.28 617.79-18.35 617.37-17.18 616.94-16 616.79-14.8ZM653.29 0L640.39 0 640.39-4.9 652.69-4.9Q653.59-4.9 654.26-5.3 654.94-5.7 655.31-6.35 655.69-7 655.69-7.7L655.69-7.7Q655.69-8.5 655.34-9.1 654.99-9.7 654.34-10.08 653.69-10.45 652.84-10.45L652.84-10.45 647.84-10.45Q645.39-10.45 643.49-11.25 641.59-12.05 640.49-13.73 639.39-15.4 639.39-17.95L639.39-17.95Q639.39-20 640.41-21.7 641.44-23.4 643.19-24.45 644.94-25.5 647.14-25.5L647.14-25.5 658.99-25.5 658.99-20.6 647.69-20.6Q646.54-20.6 645.79-19.88 645.04-19.15 645.04-18.1L645.04-18.1Q645.04-17.1 645.79-16.35 646.54-15.6 647.79-15.6L647.79-15.6 652.64-15.6Q655.39-15.6 657.34-14.75 659.29-13.9 660.31-12.2 661.34-10.5 661.34-7.9L661.34-7.9Q661.34-5.8 660.29-3.98 659.24-2.15 657.41-1.07 655.59 0 653.29 0L653.29 0ZM681.63 0L675.38 0 687.03-31.4Q687.88-33.55 689.48-34.58 691.08-35.6 693.13-35.6L693.13-35.6Q695.23-35.6 696.86-34.6 698.48-33.6 699.28-31.45L699.28-31.45 710.98 0 704.43 0 701.73-7.75 684.43-7.75 681.63 0ZM692.13-29.4L686.23-13.05 699.93-13.05 694.33-29.4Q694.13-29.9 693.86-30.15 693.58-30.4 693.18-30.4L693.18-30.4Q692.78-30.4 692.53-30.13 692.28-29.85 692.13-29.4L692.13-29.4ZM720.03 0L714.28 0 714.28-18.25Q714.28-21.65 716.21-23.58 718.13-25.5 721.53-25.5L721.53-25.5 727.68-25.5 727.68-20.6 722.58-20.6Q721.38-20.6 720.71-19.9 720.03-19.2 720.03-18L720.03-18 720.03 0ZM747.83 0L741.48 0Q738.08 0 736.15-1.95 734.23-3.9 734.23-7.25L734.23-7.25 734.23-31.9 739.93-31.9 739.93-7.5Q739.93-6.35 740.63-5.63 741.33-4.9 742.48-4.9L742.48-4.9 747.83-4.9 747.83 0ZM747.88-20.6L729.83-20.6 729.83-25.5 747.88-25.5 747.88-20.6Z" opacity="1" transform="matrix(1,0,0,1,0,0)" fill="#ff1493" class="slogan-text-1" data-fill-palette-color="secondary" id="text-1"></path></svg></g></svg></g></svg></g></svg></g><g transform="matrix(1,0,0,1,0,0.46409489831434314)"><svg viewBox="0 0 68.35748938817574 185.63795932574072" height="185.63795932574072" width="68.35748938817574"><g><svg xmlns:dc="http://purl.org/dc/elements/1.1/" xmlns:cc="http://creativecommons.org/ns#" xmlns:rdf="http://www.w3.org/1999/02/22-rdf-syntax-ns#" xmlns:svg="http://www.w3.org/2000/svg" xmlns="http://www.w3.org/2000/svg" version="1.1" viewBox="33.4375 5 33.125 89.9573325132804" xml:space="preserve" x="0" y="0" height="185.63795932574072" width="68.35748938817574" class="icon-icon-0" data-fill-palette-color="accent" id="icon-0"><path d="M43.063 5c-2.859 0-5.219 2.36-5.219 5.219l0 54.281 3.5 0 0-54.281c0-0.993 0.726-1.75 1.718-1.75 0.993 0 1.75 0.757 1.75 1.75-0.002 13.378-0.032 28.015-0.031 39.875 0 2.859 2.36 5.219 5.219 5.218 2.859 0 5.215-2.36 5.219-5.218 0.018-13.03-0.033-27.472-0.032-39.688 0-0.993 0.757-1.75 1.75-1.75 0.993 0 1.719 0.757 1.719 1.75l0 54.094 3.5 0 0-54.094c0-2.859-2.36-5.219-5.219-5.218-2.859 0-5.214 2.36-5.218 5.218-0.02 13.025 0.033 27.403 0.031 39.688 0 0.993-0.757 1.75-1.75 1.75-0.993 0-1.75-0.757-1.75-1.75 0.004-13.426 0.032-28.03 0.031-39.875C48.281 7.36 45.921 5 43.063 5z m-9.626 61.063l0 13.031c0 2.655 1.489 4.781 3.344 4.781l4.313 0 0 2.969c0 2.655 1.489 4.781 3.343 4.781l1.188 0a4.538 4.538 0 0 0 8.75 0l1.187 0c1.854 0 3.344-2.126 3.344-4.781l0-2.969 4.313 0c1.854 0 3.344-2.126 3.343-4.781l0-13.032-33.125 0z" fill="#ff1493" fill-opacity="1" fill-rule="evenodd" stroke="none" marker="none" visibility="visible" display="inline" overflow="visible" text-indent="0" text-transform="none" direction="ltr" block-progression="tb" baseline-shift="baseline" color="#ff1493" enable-background="accumulate" data-fill-palette-color="accent"></path></svg></g></svg></g></svg></g><defs></defs></svg><rect width="395.52" height="147.02644224555786" fill="none" stroke="none" visibility="hidden"></rect></g></svg></g></svg>