<svg xmlns="http://www.w3.org/2000/svg" version="1.1" xmlns:xlink="http://www.w3.org/1999/xlink" xmlns:svgjs="http://svgjs.dev/svgjs" width="1500" height="1500" viewBox="0 0 1500 1500"><rect width="1500" height="1500" fill="#ffffff"></rect><g transform="matrix(0.6666666666666666,0,0,0.6666666666666666,249.39477170772517,600.2412518653847)"><svg viewBox="0 0 396 119" data-background-color="#191970" preserveAspectRatio="xMidYMid meet" height="450" width="1500" xmlns="http://www.w3.org/2000/svg" xmlns:xlink="http://www.w3.org/1999/xlink"><g id="tight-bounds" transform="matrix(1,0,0,1,0.24032959625924377,-0.09569657326926517)"><svg viewBox="0 0 395.52 119.19139314653854" height="119.19139314653854" width="395.52"><g><svg viewBox="0 0 487.33915074351467 146.8614287822878" height="119.19139314653854" width="395.52"><g><rect width="6.09554559882155" height="146.8614287822878" x="69.7666794933278" y="0" fill="#000000" opacity="1" stroke-width="0" stroke="transparent" fill-opacity="1" class="rect-qz-0" data-fill-palette-color="primary" rx="1%" id="qz-0" data-palette-color="#00bfff"></rect></g><g transform="matrix(1,0,0,1,91.81915074351465,0.3653269372693586)"><svg viewBox="0 0 395.52 146.13077490774907" height="146.13077490774907" width="395.52"><g id="textblocktransform"><svg viewBox="0 0 395.52 146.13077490774907" height="146.13077490774907" width="395.52" id="textblock"><g><svg viewBox="0 0 395.52 146.13077490774907" height="146.13077490774907" width="395.52"><g transform="matrix(1,0,0,1,0,0)"><svg width="395.52" viewBox="3.15 -36.45 216.90000000000003 77.1" height="146.13077490774907" data-palette-color="#00bfff"><svg></svg><svg></svg><g class="wordmark-text-0" data-fill-palette-color="primary" id="text-0"><path d="M27.15 0.6v0c-1.933 0-3.65-0.45-5.15-1.35-1.5-0.9-2.667-2.117-3.5-3.65-0.833-1.533-1.25-3.233-1.25-5.1v0-16.75c0-0.767-0.183-1.46-0.55-2.08-0.367-0.613-0.857-1.103-1.47-1.47-0.62-0.367-1.297-0.55-2.03-0.55v0c-0.733 0-1.4 0.183-2 0.55-0.6 0.367-1.083 0.857-1.45 1.47-0.367 0.62-0.55 1.313-0.55 2.08v0 26.25h-5.95v-25.5c0-1.9 0.417-3.61 1.25-5.13 0.833-1.513 2-2.72 3.5-3.62 1.5-0.9 3.233-1.35 5.2-1.35v0c2 0 3.75 0.45 5.25 1.35 1.5 0.9 2.667 2.107 3.5 3.62 0.833 1.52 1.25 3.23 1.25 5.13v0 16.75c0 0.767 0.183 1.457 0.55 2.07 0.367 0.62 0.85 1.113 1.45 1.48 0.6 0.367 1.25 0.55 1.95 0.55v0c0.733 0 1.4-0.183 2-0.55 0.6-0.367 1.077-0.86 1.43-1.48 0.347-0.613 0.52-1.303 0.52-2.07v0-26.25h6v25.5c0 1.867-0.417 3.567-1.25 5.1-0.833 1.533-1.99 2.75-3.47 3.65-1.487 0.9-3.23 1.35-5.23 1.35zM63.55 0h-6.85c-2.867 0-5.373-0.543-7.52-1.63-2.153-1.08-3.83-2.58-5.03-4.5-1.2-1.913-1.8-4.12-1.8-6.62v0c0-2.633 0.533-4.95 1.6-6.95 1.067-2 2.533-3.567 4.4-4.7 1.867-1.133 4.017-1.7 6.45-1.7v0c2.733 0 4.983 0.583 6.75 1.75 1.767 1.167 3.073 2.733 3.92 4.7 0.853 1.967 1.28 4.167 1.28 6.6v0c0 0.333-0.017 0.717-0.05 1.15-0.033 0.433-0.083 0.767-0.15 1v0h-18.1c0.2 1.333 0.683 2.44 1.45 3.32 0.767 0.887 1.733 1.553 2.9 2 1.167 0.453 2.467 0.68 3.9 0.68v0h6.85zM48.4-14.8v0h12.6c-0.033-0.633-0.123-1.267-0.27-1.9-0.153-0.633-0.387-1.233-0.7-1.8-0.32-0.567-0.72-1.06-1.2-1.48-0.487-0.413-1.063-0.747-1.73-1-0.667-0.247-1.433-0.37-2.3-0.37v0c-1 0-1.883 0.19-2.65 0.57-0.767 0.387-1.417 0.887-1.95 1.5-0.533 0.62-0.94 1.32-1.22 2.1-0.287 0.787-0.48 1.58-0.58 2.38zM84.25 0.6v0c-2.633 0-4.967-0.593-7-1.78-2.033-1.18-3.64-2.78-4.82-4.8-1.187-2.013-1.78-4.27-1.78-6.77v0c0-2.5 0.593-4.76 1.78-6.78 1.18-2.013 2.787-3.613 4.82-4.8 2.033-1.18 4.367-1.77 7-1.77v0c2.6 0 4.917 0.59 6.95 1.77 2.033 1.187 3.643 2.78 4.83 4.78 1.18 2 1.77 4.267 1.77 6.8v0c0 2.5-0.59 4.757-1.77 6.77-1.187 2.02-2.797 3.62-4.83 4.8-2.033 1.187-4.35 1.78-6.95 1.78zM84.25-4.3v0c1.567 0 2.933-0.377 4.1-1.13 1.167-0.747 2.067-1.753 2.7-3.02 0.633-1.267 0.95-2.7 0.95-4.3v0c0-1.567-0.317-2.993-0.95-4.28-0.633-1.28-1.533-2.297-2.7-3.05-1.167-0.747-2.533-1.12-4.1-1.12v0c-1.6 0-2.973 0.373-4.12 1.12-1.153 0.753-2.053 1.763-2.7 3.03-0.653 1.267-0.98 2.7-0.98 4.3v0c0 1.567 0.327 2.993 0.98 4.28 0.647 1.28 1.547 2.293 2.7 3.04 1.147 0.753 2.52 1.13 4.12 1.13zM109 0h-5.75v-14.7c0-2.2 0.5-4.16 1.5-5.88 1-1.713 2.417-3.063 4.25-4.05 1.833-0.98 3.983-1.47 6.45-1.47v0c2.467 0 4.61 0.49 6.43 1.47 1.813 0.987 3.22 2.337 4.22 4.05 1 1.72 1.5 3.68 1.5 5.88v0 14.7h-5.7v-14.65c0-1.3-0.3-2.44-0.9-3.42-0.6-0.987-1.39-1.757-2.37-2.31-0.987-0.547-2.063-0.82-3.23-0.82v0c-1.133 0-2.19 0.273-3.17 0.82-0.987 0.553-1.77 1.323-2.35 2.31-0.587 0.98-0.88 2.12-0.88 3.42v0zM140.25 0h-5.75v-25.5h5.75zM137.35-29.05v0c-1 0-1.867-0.367-2.6-1.1-0.733-0.733-1.1-1.6-1.1-2.6v0c0-1 0.367-1.867 1.1-2.6 0.733-0.733 1.6-1.1 2.6-1.1v0c1.033 0 1.91 0.367 2.63 1.1 0.713 0.733 1.07 1.6 1.07 2.6v0c0 1-0.357 1.867-1.07 2.6-0.72 0.733-1.597 1.1-2.63 1.1zM159.35 0.6v0c-2.467 0-4.617-0.493-6.45-1.48-1.833-0.98-3.25-2.337-4.25-4.07-1-1.733-1.5-3.683-1.5-5.85v0-14.7h5.75v14.65c0 1.3 0.293 2.44 0.88 3.42 0.58 0.987 1.363 1.753 2.35 2.3 0.98 0.553 2.053 0.83 3.22 0.83v0c1.167 0 2.243-0.277 3.23-0.83 0.98-0.547 1.763-1.313 2.35-2.3 0.58-0.98 0.87-2.12 0.87-3.42v0-14.65h5.75v14.7c0 2.167-0.5 4.117-1.5 5.85-1 1.733-2.417 3.09-4.25 4.07-1.833 0.987-3.983 1.48-6.45 1.48zM184.15 0h-5.7v-15.25c0-1.967 0.467-3.777 1.4-5.43 0.933-1.647 2.283-2.963 4.05-3.95 1.767-0.98 3.883-1.47 6.35-1.47v0c1.2 0 2.35 0.15 3.45 0.45 1.1 0.3 2.127 0.773 3.08 1.42 0.947 0.653 1.753 1.463 2.42 2.43v0h0.05c0.667-0.967 1.477-1.777 2.43-2.43 0.947-0.647 1.98-1.12 3.1-1.42 1.113-0.3 2.27-0.45 3.47-0.45v0c2.5 0 4.627 0.49 6.38 1.47 1.747 0.987 3.087 2.303 4.02 3.95 0.933 1.653 1.4 3.463 1.4 5.43v0 15.25h-5.7v-15.25c0-1.1-0.273-2.1-0.82-3-0.553-0.9-1.28-1.617-2.18-2.15-0.9-0.533-1.933-0.8-3.1-0.8v0c-1.133 0-2.167 0.267-3.1 0.8-0.933 0.533-1.673 1.25-2.22 2.15-0.553 0.9-0.83 1.9-0.83 3v0 15.25h-5.7v-15.25c0-1.1-0.283-2.1-0.85-3-0.567-0.9-1.307-1.617-2.22-2.15-0.92-0.533-1.947-0.8-3.08-0.8v0c-1.133 0-2.157 0.267-3.07 0.8-0.92 0.533-1.653 1.25-2.2 2.15-0.553 0.9-0.83 1.9-0.83 3v0z" fill="#000000" fill-rule="nonzero" stroke="none" stroke-width="1" stroke-linecap="butt" stroke-linejoin="miter" stroke-miterlimit="10" stroke-dasharray="" stroke-dashoffset="0" font-family="none" font-weight="none" font-size="none" text-anchor="none" style="mix-blend-mode: normal" data-fill-palette-color="primary" opacity="1"></path><path transform="translate(0,40.05)" d="M22.3 0h-9.3c-1.967 0-3.69-0.443-5.17-1.33-1.487-0.88-2.637-2.07-3.45-3.57-0.82-1.5-1.23-3.167-1.23-5v0-25.1h6v25.85c0 1.067 0.36 1.983 1.08 2.75 0.713 0.767 1.637 1.15 2.77 1.15v0h9.3zM39.2 0.6v0c-2.467 0-4.617-0.493-6.45-1.48-1.833-0.98-3.25-2.337-4.25-4.07-1-1.733-1.5-3.683-1.5-5.85v0-14.7h5.75v14.65c0 1.3 0.293 2.44 0.88 3.42 0.58 0.987 1.363 1.753 2.35 2.3 0.98 0.553 2.053 0.83 3.22 0.83v0c1.167 0 2.24-0.277 3.22-0.83 0.987-0.547 1.773-1.313 2.36-2.3 0.58-0.98 0.87-2.12 0.87-3.42v0-14.65h5.75v14.7c0 2.167-0.5 4.117-1.5 5.85-1 1.733-2.417 3.09-4.25 4.07-1.833 0.987-3.983 1.48-6.45 1.48zM63 0h-6.35l8.2-11.45c-1.433-0.6-2.673-1.41-3.72-2.43-1.053-1.013-1.87-2.187-2.45-3.52-0.587-1.333-0.88-2.767-0.88-4.3v0-3.8h5.75v3.8c0 1.067 0.25 2.04 0.75 2.92 0.5 0.887 1.177 1.623 2.03 2.21 0.847 0.58 1.77 0.97 2.77 1.17v0l7.1-10.1h6.35l-7.85 10.95c1.633 0.533 3.033 1.333 4.2 2.4 1.167 1.067 2.06 2.307 2.68 3.72 0.613 1.42 0.92 2.947 0.92 4.58v0 3.85h-5.7v-3.85c0-1.167-0.283-2.233-0.85-3.2-0.567-0.967-1.34-1.75-2.32-2.35-0.987-0.6-2.097-0.933-3.33-1v0z" fill="#000000" fill-rule="nonzero" stroke="none" stroke-width="1" stroke-linecap="butt" stroke-linejoin="miter" stroke-miterlimit="10" stroke-dasharray="" stroke-dashoffset="0" font-family="none" font-weight="none" font-size="none" text-anchor="none" style="mix-blend-mode: normal" data-fill-palette-color="primary" opacity="1"></path></g></svg></g></svg></g></svg></g></svg></g><g transform="matrix(1,0,0,1,0,0.3653269372693586)"><svg viewBox="0 0 53.80975384196249 146.13077490774907" height="146.13077490774907" width="53.80975384196249"><g><svg xmlns:dc="http://purl.org/dc/elements/1.1/" xmlns:cc="http://creativecommons.org/ns#" xmlns:rdf="http://www.w3.org/1999/02/22-rdf-syntax-ns#" xmlns:svg="http://www.w3.org/2000/svg" xmlns="http://www.w3.org/2000/svg" version="1.1" viewBox="33.4375 5 33.125 89.9573325132804" xml:space="preserve" x="0" y="0" height="146.13077490774907" width="53.80975384196249" class="icon-icon-0" data-fill-palette-color="accent" id="icon-0"><path d="M43.063 5c-2.859 0-5.219 2.36-5.219 5.219l0 54.281 3.5 0 0-54.281c0-0.993 0.726-1.75 1.718-1.75 0.993 0 1.75 0.757 1.75 1.75-0.002 13.378-0.032 28.015-0.031 39.875 0 2.859 2.36 5.219 5.219 5.218 2.859 0 5.215-2.36 5.219-5.218 0.018-13.03-0.033-27.472-0.032-39.688 0-0.993 0.757-1.75 1.75-1.75 0.993 0 1.719 0.757 1.719 1.75l0 54.094 3.5 0 0-54.094c0-2.859-2.36-5.219-5.219-5.218-2.859 0-5.214 2.36-5.218 5.218-0.02 13.025 0.033 27.403 0.031 39.688 0 0.993-0.757 1.75-1.75 1.75-0.993 0-1.75-0.757-1.75-1.75 0.004-13.426 0.032-28.03 0.031-39.875C48.281 7.36 45.921 5 43.063 5z m-9.626 61.063l0 13.031c0 2.655 1.489 4.781 3.344 4.781l4.313 0 0 2.969c0 2.655 1.489 4.781 3.343 4.781l1.188 0a4.538 4.538 0 0 0 8.75 0l1.187 0c1.854 0 3.344-2.126 3.344-4.781l0-2.969 4.313 0c1.854 0 3.344-2.126 3.343-4.781l0-13.032-33.125 0z" fill="#000000" fill-opacity="1" fill-rule="evenodd" stroke="none" marker="none" visibility="visible" display="inline" overflow="visible" text-indent="0" text-transform="none" direction="ltr" block-progression="tb" baseline-shift="baseline" color="#ff1493" enable-background="accumulate" data-fill-palette-color="accent"></path></svg></g></svg></g></svg></g><defs></defs></svg><rect width="395.52" height="119.19139314653854" fill="none" stroke="none" visibility="hidden"></rect></g></svg></g></svg>